<svg width="317" height="196" viewBox="0 0 317 196" fill="none" xmlns="http://www.w3.org/2000/svg">
<path d="M270 64.5C275.151 170.39 234.53 184.917 98.5 172L270 64.5Z" fill="#88F1B6" stroke="#88F1B6" stroke-width="3"/>
<path d="M35 162.5C83.9945 155.923 125.903 124.133 190.625 72.9062C205.806 60.8905 212.211 41.9067 220.189 24.2662C224.42 14.91 231.555 8.77988 243.74 4.06108C249.739 1.73796 256.327 1.1892 262.628 2.48667C271.08 4.22716 277.566 7.02699 287 12.5C295.09 12.8944 301.437 14.5535 314 18.5C306.025 26.1599 292.955 32.8973 282.5 36.5C280.849 46.4288 280.124 48.896 273.715 57.5933C270.358 62.1481 268.464 67.5763 266.519 72.8894C258.062 95.984 224.931 117.973 166.66 143.446C131.32 158.895 69.9303 185.974 31.6522 190.706C22.0932 191.888 11.8087 193.128 1 194.5L57 171L35 162.5Z" fill="#4ADE7B" stroke="#4ADE7B" stroke-width="3"/>
</svg>
